HIERARCHY
ROOT SpineBase
{
  OFFSET 0.000000 0.000000 0.000000
  CHANNELS 6 Xposition Yposition Zposition Zrotation Xrotation Yrotation
  JOINT SpineMid
  {
    OFFSET -0.000000 34.547655 0.000000
    CHANNELS 3 Zrotation Xrotation Yrotation
    JOINT SpineShoulder
    {
      OFFSET 0.096387 25.554002 -0.978105
      CHANNELS 3 Zrotation Xrotation Yrotation
      JOINT Neck
      {
        OFFSET -0.242294 8.331162 -0.821121
        CHANNELS 3 Zrotation Xrotation Yrotation
        JOINT Head
        {
          OFFSET -1.888994 12.302759 3.202855
          CHANNELS 3 Zrotation Xrotation Yrotation
          End Site
          {
            OFFSET 0 0 0
          }
        }
      }
      JOINT ShoulderLeft
      {
        OFFSET -6.712235 -9.396493 -16.226612
        CHANNELS 3 Zrotation Xrotation Yrotation
        JOINT ElbowLeft
        {
          OFFSET -7.328995 -24.064846 -3.227797
          CHANNELS 3 Zrotation Xrotation Yrotation
          JOINT WristLeft
          {
            OFFSET 2.646967 -21.883210 -9.461028
            CHANNELS 3 Zrotation Xrotation Yrotation
            JOINT HandLeft
            {
              OFFSET -3.393261 -4.455135 6.977737
              CHANNELS 3 Zrotation Xrotation Yrotation
              JOINT HandTipLeft
              {
                OFFSET -0.535639 -3.380986 -0.876874
                CHANNELS 3 Zrotation Xrotation Yrotation
                End Site
                {
                  OFFSET 0 0 0
                }
              }
              JOINT ThumbLeft
              {
                OFFSET 3.135796 0.584730 -0.996250
                CHANNELS 3 Zrotation Xrotation Yrotation
                End Site
                {
                  OFFSET 0 0 0
                }
              }
            }
          }
        }
      }
      JOINT ShoulderRight
      {
        OFFSET -0.272990 -6.678385 -11.939759
        CHANNELS 3 Zrotation Xrotation Yrotation
        JOINT ElbowRight
        {
          OFFSET -8.397449 -29.017167 -7.985143
          CHANNELS 3 Zrotation Xrotation Yrotation
          JOINT WristRight
          {
            OFFSET -8.507465 -21.954395 -1.469574
            CHANNELS 3 Zrotation Xrotation Yrotation
            JOINT HandRight
            {
              OFFSET -1.668089 -8.306039 2.624634
              CHANNELS 3 Zrotation Xrotation Yrotation
              JOINT HandTipRight
              {
                OFFSET -3.230997 -6.916939 1.321191
                CHANNELS 3 Zrotation Xrotation Yrotation
                End Site
                {
                  OFFSET 0 0 0
                }
              }
              JOINT ThumbRight
              {
                OFFSET -6.582240 -1.335283 -2.157316
                CHANNELS 3 Zrotation Xrotation Yrotation
                End Site
                {
                  OFFSET 0 0 0
                }
              }
            }
          }
        }
      }
    }
  }
  JOINT HipLeft
  {
    OFFSET -5.047807 1.116351 -0.835620
    CHANNELS 3 Zrotation Xrotation Yrotation
    JOINT KneeLeft
    {
      OFFSET 11.463212 -34.057685 9.085557
      CHANNELS 3 Zrotation Xrotation Yrotation
      JOINT AnkleLeft
      {
        OFFSET 5.243776 -40.337166 9.555991
        CHANNELS 3 Zrotation Xrotation Yrotation
        JOINT FootLeft
        {
          OFFSET 5.295970 -4.253629 -12.123309
          CHANNELS 3 Zrotation Xrotation Yrotation
          End Site
          {
            OFFSET 0 0 0
          }
        }
      }
    }
  }
  JOINT HipRight
  {
    OFFSET 5.366381 0.214185 -7.507679
    CHANNELS 3 Zrotation Xrotation Yrotation
    JOINT KneeRight
    {
      OFFSET -13.209456 -39.110352 -0.179966
      CHANNELS 3 Zrotation Xrotation Yrotation
      JOINT AnkleRight
      {
        OFFSET -1.609911 -37.649011 0.844520
        CHANNELS 3 Zrotation Xrotation Yrotation
        JOINT FootRight
        {
          OFFSET 5.568189 -4.105938 -12.066902
          CHANNELS 3 Zrotation Xrotation Yrotation
          End Site
          {
            OFFSET 0 0 0
          }
        }
      }
    }
  }
}
MOTION
Frames: 9
Frame Time: 0.033333
9.987138 80.304981 296.784682 6.563644 -7.760171 55.146124 0.286970 0.480690 -54.446998 -3.254623 1.994270 0.030820 -10.638515 6.180768 2.890954 0.000000 0.000000 0.000000 8.440035 4.451377 -2.337598 -14.576565 2.352786 3.042410 -25.496273 13.205536 -52.610556 22.335303 -4.657560 56.707109 0.000000 0.000000 0.000000 0.000000 0.000000 0.000000 3.161025 6.729232 -2.798982 -18.573600 7.508257 -0.134502 -18.805657 0.216088 -10.500300 11.739949 0.062883 5.166592 0.000000 0.000000 0.000000 0.000000 0.000000 0.000000 4.451371 21.897459 -54.969304 2.082943 -2.067696 -1.241025 5.613252 -17.978582 -14.092606 0.000000 0.000000 0.000000 -1.058458 21.659497 -55.189305 13.129668 2.323837 1.442203 -11.993835 -27.411079 -6.313016 0.000000 0.000000 0.000000
10.812153 80.202336 298.021616 7.174647 -8.478874 52.493734 0.299495 0.405544 -51.684674 -3.101381 1.917530 0.058833 -13.262450 6.185540 3.502125 0.000000 0.000000 0.000000 8.046627 6.252542 -3.013532 -24.630913 2.862937 7.882788 -14.206703 19.515049 -66.187145 21.000177 -8.074922 67.200876 0.000000 0.000000 0.000000 0.000000 0.000000 0.000000 0.993985 10.868207 -3.416977 -25.178462 6.712808 -0.486609 -25.825172 4.404569 -16.013774 19.774302 -0.780378 9.121102 0.000000 0.000000 0.000000 0.000000 0.000000 0.000000 4.543972 23.779810 -51.979658 1.204461 -2.764891 -1.920799 7.195599 -15.732935 -10.138212 0.000000 0.000000 0.000000 -4.213336 25.144115 -51.407130 14.854736 2.396818 1.491392 -14.513819 -32.861088 3.495046 0.000000 0.000000 0.000000
11.125497 80.121097 298.829545 7.634255 -8.906834 51.103399 0.305383 -0.049813 -50.207530 -2.785141 1.615232 0.096022 -14.907492 6.762851 3.790393 0.000000 0.000000 0.000000 1.572780 11.158433 -3.152907 -30.813851 1.130239 12.642231 4.551283 20.294725 -74.763031 6.634306 -22.868849 69.514162 0.000000 0.000000 0.000000 0.000000 0.000000 0.000000 -0.582936 14.825326 -4.205888 -35.376112 7.934550 -1.124000 -27.917782 6.298599 -21.011844 22.861134 5.817858 11.229902 0.000000 0.000000 0.000000 0.000000 0.000000 0.000000 4.629799 25.072173 -50.374793 0.986015 -3.409466 -2.299027 9.103341 -13.311719 -10.463240 0.000000 0.000000 0.000000 -7.042373 27.642301 -48.824303 16.273896 2.447550 1.457692 -10.260426 -27.794158 3.538397 0.000000 0.000000 0.000000
11.469851 79.961569 299.291467 8.218006 -9.135527 49.203265 0.371945 -0.772243 -48.213225 -2.200224 1.163612 0.158261 -15.371203 7.654410 3.436984 0.000000 0.000000 0.000000 -6.178501 17.709235 -2.988578 -40.576408 -1.622014 18.085323 16.789328 16.663160 -90.671644 5.734925 -21.132000 79.624422 0.000000 0.000000 0.000000 0.000000 0.000000 0.000000 -3.796444 18.847738 -4.410535 -42.414608 10.301228 -2.191132 -31.454280 7.272072 -26.816029 23.538495 12.359852 14.348279 0.000000 0.000000 0.000000 0.000000 0.000000 0.000000 4.214342 24.178795 -48.158645 -2.859069 -1.412399 -3.161200 14.043770 -8.919480 -8.419446 0.000000 0.000000 0.000000 -10.394658 30.355684 -45.644544 18.239352 1.479516 1.685453 -9.055140 -26.833252 4.475265 0.000000 0.000000 0.000000
10.672386 79.875456 299.504329 8.366171 -9.564525 47.566647 0.391915 -0.411867 -46.536425 -1.790727 0.733755 0.165430 -13.270023 8.613655 2.644563 0.000000 0.000000 0.000000 -13.178193 25.183905 -2.193493 -50.524040 -6.126849 21.173278 36.945441 10.575155 -99.190724 10.259190 -33.882871 84.259259 0.000000 0.000000 0.000000 0.000000 0.000000 0.000000 -6.251339 22.837345 -4.238007 -45.977764 12.632835 -3.645403 -34.823003 3.816996 -34.288102 19.201794 20.986371 18.333203 0.000000 0.000000 0.000000 0.000000 0.000000 0.000000 3.393683 26.164459 -46.368430 1.962816 -3.393267 -1.978436 10.665299 -7.826471 -10.090421 0.000000 0.000000 0.000000 -12.681536 31.425429 -42.922377 19.050596 0.823853 1.636534 -8.384753 -26.044726 6.844450 0.000000 0.000000 0.000000
9.153648 80.016064 299.494100 8.342595 -10.011723 44.415404 0.361381 -0.591005 -43.346687 -1.830967 0.587525 0.162949 -9.449077 9.955371 1.240721 0.000000 0.000000 0.000000 -17.325826 30.731659 -1.321157 -59.769297 -7.587363 23.446484 45.958094 5.726616 -110.827261 12.960547 -35.669545 94.918929 0.000000 0.000000 0.000000 0.000000 0.000000 0.000000 -10.360470 26.095776 -2.600644 -48.240923 15.345790 -4.632201 -32.837915 5.407303 -36.697396 11.916556 18.280562 19.102712 0.000000 0.000000 0.000000 0.000000 0.000000 0.000000 2.082446 27.100066 -42.854488 6.144087 -4.765803 -0.693677 3.334220 -11.551468 -9.076665 0.000000 0.000000 0.000000 -15.075688 31.401114 -38.841355 19.518712 0.279772 1.594917 -7.891455 -25.311756 6.731883 0.000000 0.000000 0.000000
6.865561 80.366646 299.140009 8.140388 -10.409259 39.555170 0.308324 -0.686889 -38.472716 -1.959501 0.582114 0.142533 -5.013159 11.090582 -0.398000 0.000000 0.000000 0.000000 -19.835000 33.845785 -0.343709 -65.955055 -6.119344 26.702557 42.637538 2.255880 -123.828916 -3.052468 -31.704464 105.785338 0.000000 0.000000 0.000000 0.000000 0.000000 0.000000 -15.623523 26.757937 0.566348 -47.645761 19.662515 -4.264286 -33.281460 8.926243 -38.957287 8.148334 17.201983 20.623597 0.000000 0.000000 0.000000 0.000000 0.000000 0.000000 0.462753 26.425861 -37.508243 8.589460 -5.180038 0.257561 -1.874801 -12.411369 -7.819488 0.000000 0.000000 0.000000 -17.714747 29.836369 -33.210772 19.981689 0.445505 1.424075 -6.936393 -23.349213 2.365010 0.000000 0.000000 0.000000
4.362103 81.158397 298.679040 7.887139 -10.831085 37.249874 0.221590 -0.846676 -36.158743 -2.111213 0.589864 0.119948 -1.614884 12.451642 -1.618164 0.000000 0.000000 0.000000 -20.703305 35.131139 0.326434 -70.116084 -3.180798 30.985443 29.389388 2.392511 -138.170694 -18.724598 -23.209626 124.877049 0.000000 0.000000 0.000000 0.000000 0.000000 0.000000 -20.905472 25.489779 4.168100 -47.663655 25.470268 -2.332309 -28.713708 23.939036 -29.872341 11.897497 0.204045 10.397409 0.000000 0.000000 0.000000 0.000000 0.000000 0.000000 1.296647 25.112864 -35.080016 8.613135 -5.366351 0.339189 -4.062692 -9.602155 -4.319156 0.000000 0.000000 0.000000 -19.351980 28.036839 -30.093720 21.994787 2.123225 0.790543 -14.366796 -33.136090 3.918499 0.000000 0.000000 0.000000
1.295318 81.737432 297.831451 7.526891 -11.158715 31.565053 0.166270 -0.830626 -30.491044 -2.241141 0.647395 0.088323 2.254895 13.336594 -3.054776 0.000000 0.000000 0.000000 -21.138180 33.106006 1.355277 -69.823748 8.350371 42.657352 6.219526 -7.681165 -146.407187 -46.546729 -20.899258 135.699359 0.000000 0.000000 0.000000 0.000000 0.000000 0.000000 -26.960772 22.798406 8.225618 -43.447228 28.840318 -0.897374 -27.924224 34.607784 -21.291898 12.831074 -9.097715 3.189589 0.000000 0.000000 0.000000 0.000000 0.000000 0.000000 1.196791 22.491829 -29.178103 7.399724 -4.542242 0.217047 -7.542682 -9.842129 -1.034268 0.000000 0.000000 0.000000 -20.686634 24.221245 -24.340186 22.013515 3.934035 0.067253 -26.901904 -52.032193 8.597286 0.000000 0.000000 0.000000
